<svg width="256" height="328" viewBox="0 0 256 328" fill="none" xmlns="http://www.w3.org/2000/svg">
<path d="M128.08 259.6C144.8 259.6 159.16 256 171.16 248.8C183.16 241.52 192.36 231.56 198.76 218.92C205.24 206.28 208.48 191.8 208.48 175.48C208.48 175 208.44 173.52 208.36 171.04C208.28 168.56 208.16 166.68 208 165.4H146.8V188.08H177.28C175.04 202.96 169.84 214.12 161.68 221.56C153.52 228.92 142.92 232.52 129.88 232.36C112.52 232.12 99.48 226.32 90.76 214.96C82.04 203.6 77.72 188.48 77.8 169.6C77.88 156.96 79.84 145.92 83.68 136.48C87.52 127.04 93.28 119.72 100.96 114.52C108.64 109.32 118.28 106.8 129.88 106.96C141.32 107.04 150.76 110.12 158.2 116.2C165.72 122.28 171.12 130.44 174.4 140.68L203.92 136C199.52 118.24 191.08 104.4 178.6 94.48C166.2 84.56 149.36 79.6 128.08 79.6C112.72 79.6 98.92 83.16 86.68 90.28C74.52 97.4 64.88 107.68 57.76 121.12C50.72 134.56 47.2 150.72 47.2 169.6C47.2 188.8 50.8 205.12 58 218.56C65.28 231.92 75.04 242.12 87.28 249.16C99.52 256.12 113.12 259.6 128.08 259.6Z" fill="#CB5818"/>
<mask id="mask0" style="mask-type:alpha" maskUnits="userSpaceOnUse" x="47" y="79" width="162" height="181">
<path d="M128.08 259.6C144.8 259.6 159.16 256 171.16 248.8C183.16 241.52 192.36 231.56 198.76 218.92C205.24 206.28 208.48 191.8 208.48 175.48C208.48 175 208.44 173.52 208.36 171.04C208.28 168.56 208.16 166.68 208 165.4H146.8V188.08H177.28C175.04 202.96 169.84 214.12 161.68 221.56C153.52 228.92 142.92 232.52 129.88 232.36C112.52 232.12 99.48 226.32 90.76 214.96C82.04 203.6 77.72 188.48 77.8 169.6C77.88 156.96 79.84 145.92 83.68 136.48C87.52 127.04 93.28 119.72 100.96 114.52C108.64 109.32 118.28 106.8 129.88 106.96C141.32 107.04 150.76 110.12 158.2 116.2C165.72 122.28 171.12 130.44 174.4 140.68L203.92 136C199.52 118.24 191.08 104.4 178.6 94.48C166.2 84.56 149.36 79.6 128.08 79.6C112.72 79.6 98.92 83.16 86.68 90.28C74.52 97.4 64.88 107.68 57.76 121.12C50.72 134.56 47.2 150.72 47.2 169.6C47.2 188.8 50.8 205.12 58 218.56C65.28 231.92 75.04 242.12 87.28 249.16C99.52 256.12 113.12 259.6 128.08 259.6Z" fill="#1343EA"/>
</mask>
<g mask="url(#mask0)">
<path d="M267.801 328.053L41.4038 252.296L221.235 93.9029L267.801 328.053Z" fill="#1343EA"/>
</g>
</svg>
